<?xml version="1.0" encoding="UTF-8"?>
<svg id="Layer_2" data-name="Layer 2" xmlns="http://www.w3.org/2000/svg" viewBox="0 0 354.43 406.65">
  <defs>
    <style>
      .cls-1 {
        fill: #edd7c0;
      }

      .cls-1, .cls-2, .cls-3 {
        stroke-width: 0px;
      }

      .cls-2 {
        fill: #dba54d;
      }

      .cls-3 {
        fill: #241711;
      }
    </style>
  </defs>
  <g id="OBJECTS">
    <g>
      <g>
        <g>
          <path class="cls-1" d="M299.58,53.92c-5.68-1.08-10.78-4.71-13.87-9.68-3.22-5.2-3.93-11.34-4.51-17.27-.02-.21.01-.47-.15-.46-.16,0-.34.09-.36.3-.57,5.89-1.02,12.3-4.29,17.43-3.17,4.97-7.88,8.53-13.62,9.62-.48.09-1.12.72-.65.62.08-.02.16-.04.24-.05,8.05,1.08,12.74,4.38,15.81,12.01,2,4.98,1.98,9.94,2.6,15.23,0,.21.16.31.32.3.15,0,.05-.97.06-1.18.59-5.06.71-9.13,2.61-13.93,1-2.54,1.99-4.83,3.78-6.97,3.22-3.84,7.45-4.85,12.17-5.46.08.02.17.04.25.06.48.1.09-.47-.39-.56Z"/>
          <path class="cls-1" d="M352.87,39.85c-5.9-.64-11.62-1.76-15.85-6.25-2.75-2.91-4.2-6-5.7-9.59-2.81-6.74-2.77-13.47-3.56-20.64,0-.21-.16-.3-.31-.3-.15,0-.3.09-.31.3-.76,6.94-.6,13.67-3.28,20.22-1.44,3.53-2.81,6.64-5.43,9.53-4.37,4.83-10.05,6.06-16.28,6.73-.18,0-.25.12-.24.26-.01.13.06.26.24.26,5.9.64,11.62,1.76,15.85,6.25,2.75,2.91,4.2,6,5.7,9.59,2.81,6.74,2.78,13.47,3.56,20.64,0,.21.16.3.31.3.15,0,.3-.09.31-.3.76-6.94.6-13.67,3.28-20.22,1.44-3.53,2.81-6.64,5.43-9.53,4.37-4.83,10.05-6.06,16.28-6.73.18,0,.25-.12.24-.26.01-.13-.06-.26-.24-.26Z"/>
          <path class="cls-1" d="M285.35,18.75c.07-.01.12-.03.19-.05,4.91.82,7.78,2.72,9.69,7.47,1.25,3.1,1.18,6.23,1.66,9.49,0,0,0,0,0,0,0,0,0,0,0,0,0,.03,0,.05.01.08.02.16.14.21.26.21.01,0,.02,0,.03,0,.01,0,.02,0,.03,0,.12,0,.24-.05.26-.21,0-.03,0-.05.01-.08,0,0,0,0,0,0,0,0,0,0,0,0,.46-3.14.34-6.23,1.5-9.23,1.87-4.85,4.76-6.89,9.8-7.73.06.01.12.03.19.05.46.1.66-.62.19-.71-8.7-1.63-10.88-9.08-11.68-16.76-.02-.15-.11-.24-.23-.28,0,0-.01,0-.02,0-.03,0-.06-.01-.09-.01s-.06,0-.09.01c0,0-.01,0-.02,0-.11.04-.21.13-.23.28-.8,7.68-2.98,15.13-11.68,16.76-.46.09-.27.8.19.71Z"/>
        </g>
        <g>
          <path class="cls-3" d="M280.73,26.32c.94,13.21,5.17,25.34,19.61,28.29.49.1.69-.65.21-.75-5.81-1.11-11.62-4.63-14.78-9.72s-3.8-11.76-4.39-17.82c-.04-.41-.68-.42-.65,0h0Z"/>
          <path class="cls-3" d="M300.44,53.97c-7.72.26-13.57,3.51-16.58,10.8-2.36,5.7-3.4,11.39-3.13,17.62.02.43.6.41.65,0,.61-5.18.47-10.23,2.4-15.14,1.02-2.6,2.03-4.94,3.87-7.12,3.38-4.02,7.83-5.01,12.8-5.63.33-.04.35-.55,0-.53h0Z"/>
          <path class="cls-3" d="M280.64,26.32c-.58,6.02-1.05,12.58-4.39,17.82s-8.92,8.6-14.78,9.72c-.49.09-.28.85.21.75,14.44-2.94,18.67-15.07,19.61-28.29.03-.42-.61-.41-.65,0h0Z"/>
          <path class="cls-3" d="M261.57,54.5c8.44,1.06,13.32,4.42,16.5,12.33,2.04,5.09,2.03,10.16,2.66,15.56.05.4.63.43.65,0,.27-6.27-.84-11.91-3.22-17.62-3.04-7.29-8.84-10.54-16.59-10.8-.35-.01-.33.49,0,.53h0Z"/>
        </g>
        <g>
          <path class="cls-3" d="M353.95,39.84c-10.59.44-18.5,4.95-22.54,14.97-3.08,7.66-4.49,15.26-4.17,23.61.02.42.6.41.65,0,.79-7.24.63-14.26,3.42-21.09,1.5-3.68,2.93-6.92,5.66-9.94,4.56-5.03,10.48-6.31,16.98-7.02.33-.04.35-.55,0-.53h0Z"/>
          <path class="cls-3" d="M301.06,40.38c6.15.67,12.11,1.84,16.53,6.51,2.86,3.04,4.38,6.25,5.94,10.01,2.93,7.03,2.89,14.04,3.72,21.53.04.41.63.43.65,0,.32-8.42-1.19-15.92-4.29-23.61-4.05-10.02-11.94-14.53-22.54-14.97-.35-.01-.33.5,0,.53h0Z"/>
          <g>
            <path class="cls-3" d="M301.06,40.38c10.59-.44,18.5-4.95,22.54-14.97,3.08-7.66,4.49-15.26,4.17-23.61-.02-.42-.6-.41-.65,0-.79,7.24-.63,14.26-3.42,21.09-1.5,3.68-2.93,6.92-5.66,9.94-4.56,5.03-10.48,6.31-16.98,7.02-.33.04-.35.55,0,.53h0Z"/>
            <path class="cls-3" d="M353.95,39.84c-6.15-.67-12.11-1.84-16.53-6.51-2.86-3.04-4.38-6.25-5.94-10.01-2.93-7.03-2.89-14.04-3.72-21.53-.04-.41-.63-.43-.65,0-.32,8.42,1.19,15.92,4.29,23.61,4.05,10.02,11.94,14.53,22.54,14.97.35.01.33-.5,0-.53h0Z"/>
          </g>
        </g>
        <g>
          <path class="cls-3" d="M296.88.31c.56,8.62,3.36,16.51,12.78,18.46.49.1.69-.65.21-.75-9.19-1.72-11.5-9.59-12.34-17.71-.04-.41-.67-.42-.65,0h0Z"/>
          <path class="cls-3" d="M309.76,18.13c-5.05.06-8.77,2.24-10.83,6.89-1.62,3.66-2.35,7.6-2.06,11.62.02.34.58.47.64.09.5-3.35.36-6.64,1.6-9.84,2.02-5.24,5.17-7.38,10.72-8.23.3-.05.22-.53-.07-.52h0Z"/>
          <path class="cls-3" d="M296.81.31c-.84,8.12-3.15,15.99-12.34,17.71-.49.09-.28.85.21.75,9.42-1.95,12.23-9.83,12.78-18.46.03-.42-.6-.41-.65,0h0Z"/>
          <path class="cls-3" d="M284.5,18.65c5.42.83,8.55,2.82,10.62,7.96,1.33,3.31,1.24,6.64,1.77,10.12.06.38.61.25.64-.09.3-4.06-.49-7.93-2.12-11.62-2.05-4.65-5.79-6.83-10.83-6.89-.29,0-.38.48-.07.52h0Z"/>
        </g>
      </g>
      <g>
        <path class="cls-3" d="M210.22,115.78s6.89-12.59,9.86-12.07c2.97.51.59,14.17.59,14.17,0,0,6.09,3.5,8.64,7.39,0,0,4.32,10.54-2.85,19.9,0,0,18.09-19.11,25.87-32.32,7.78-13.21,11.76-25.22,14.22-24.81,2.46.41,8.19,5.39,4.94,18.9-3.26,13.5-17.78,46.22-41.81,71.11,0,0,1.89,15.77-.56,25.28s-6.88,15.36-6.88,15.36l5.73,59.7s11.5-6.28,12,6.74c0,0-12.35,2.94-23.52,2.51l-10.96-46.36s6.04,29.05-11.76,36.72c0,0,11.56-3.07,13.6,1.64s-.97,8.04-.97,8.04c0,0-29.31-.88-56.22-14.39-26.9-13.5-33.86-23.02-33.86-23.02,0,0-5.21-27.1,8.9-42.86,14.12-15.75,41.67-21.59,49.22-32.74,7.55-11.15,8.39-21.31,8.39-21.31,0,0-5.44-13.06-2.07-24.21,0,0-10.23-23.79-3.27-28.03,5.36-3.27,21.49,16.59,21.49,16.59,0,0,6.42-2.11,11.29-1.93Z"/>
        <g>
          <path class="cls-1" d="M204.41,116.41c-.36-1.01-.89-1.84-1.77-2.47s-2.21-1.24-3.31-.95c-.18.05-.25.34-.06.43.9.4,1.87.46,2.75.98s1.67,1.22,2.2,2.1c.06.1.24.04.2-.08h0Z"/>
          <path class="cls-1" d="M204.89,116.41c.12-2.37-.56-6.48-3.69-6.61-.21,0-.28.29-.11.39,1.03.61,1.95,1.09,2.6,2.16.72,1.19.96,2.69.99,4.06,0,.13.19.13.2,0h0Z"/>
          <path class="cls-1" d="M205.38,116.44c.5-.98,1.18-2.87.41-3.86-.07-.09-.21-.03-.24.06-.17.47-.05,1.02-.09,1.52-.06.69-.23,1.37-.51,2.01-.13.3.29.56.45.26h0Z"/>
          <path class="cls-1" d="M262.86,92.05c-5.73,13.04-12.59,25.27-21.61,36.34-8.03,9.85-17.39,18.42-25.82,27.89-.24.26.13.64.39.39,19.47-18.69,37.32-39.12,47.43-64.46.09-.22-.29-.38-.39-.16h0Z"/>
          <path class="cls-1" d="M211.67,129.09c-4.21-2.64-10.82-2.55-14.61.84-.16.15.04.37.22.29,4.97-2.35,9.06-2.89,14.23-.75.22.09.35-.26.16-.38h0Z"/>
          <path class="cls-1" d="M225.34,124.66c.27-.75.65-1.47,1.18-2.07.47-.53,1.15-.84,1.59-1.36.1-.12.05-.36-.14-.34-.76.08-1.47.81-1.93,1.37-.56.67-.95,1.43-1.14,2.28-.07.29.34.4.44.12h0Z"/>
          <path class="cls-1" d="M222.31,127.18c-1.09-.1-2.41.46-3.05,1.37-.39.55-.44,1.27.07,1.77.56.55,1.36.48,2.05.27s1.34-.49,1.77-1.07c.37-.5.59-1.26.16-1.8-.92-1.13-2.8-.13-3.35.85-.39.69.68,1.32,1.07.62.15-.26.33-.46.61-.59.06-.03.61-.22.66-.1.19.41-1.67,1.12-1.93.91-.21-.17-.08.1-.08-.09,0-.08.17-.22.21-.26.18-.18.4-.31.62-.44.39-.22.87-.53,1.31-.62.5-.1.33-.8-.11-.84h0Z"/>
          <path class="cls-1" d="M219.85,107.67c-1.33,2.77-2.77,6.05-2.92,9.15,0,.08.12.11.15.04,1.24-2.88,1.89-6.15,2.93-9.13.03-.09-.11-.15-.15-.07h0Z"/>
          <path class="cls-1" d="M189.88,121.65c-.43-1.68-.44-3.37-.72-5.06-.02-.1-.18-.1-.2,0-.35,1.66.13,3.56.68,5.12.05.15.29.09.24-.07h0Z"/>
          <path class="cls-1" d="M188.74,121.92c-.51-.91-1.04-1.81-1.64-2.66-.48-.67-.92-1.48-1.6-1.96-.11-.08-.29.05-.24.19.31.8.99,1.48,1.49,2.18.57.81,1.17,1.6,1.74,2.4.11.15.34.02.25-.15h0Z"/>
          <path class="cls-1" d="M187.49,122.21c-.75-.52-1.67-1.17-2.61-1.21-.14,0-.25.21-.13.3.73.57,1.7.84,2.51,1.28.25.14.45-.22.22-.38h0Z"/>
          <path class="cls-1" d="M220.66,207.61c3.87,23.35,3.92,47.35,7.09,70.81.03.23.43.18.41-.06-1.21-16.17-3.07-32.33-4.61-48.48-.71-7.45-1.32-14.96-2.71-22.32-.02-.12-.2-.07-.18.05h0Z"/>
          <path class="cls-1" d="M224.78,281.61c2.79-2.46,5.74-4.37,9.59-4.3s4.6,4.13,5.42,7.15c.05.17.34.15.32-.04-.22-3.02-1.42-7.1-4.91-7.62-4.08-.62-8.04,1.69-10.63,4.61-.12.14.07.33.21.21h0Z"/>
          <path class="cls-1" d="M190.09,279.64c3.88-.75,7.91-2.06,11.91-1.89,5.64.24,5.49,4.72,4.61,9.26-.05.28.32.38.42.12,1.37-3.41,1.71-8.25-2.47-9.65s-10.52.49-14.61,1.68c-.32.09-.18.55.13.49h0Z"/>
          <path class="cls-1" d="M172.78,228.35c6.72-4.23,20.34-1.95,26.02,3.27,5.16,4.74,7.69,10.9,7.75,17.81.1,12.08-3.37,21.08-12.92,28.84-.13.1.04.3.17.22,11.11-6.3,13.97-19.51,13.31-31.33-.41-7.31-4.97-15.2-11.65-18.54-6.08-3.04-16.97-4.52-22.86-.56-.18.12-.02.41.17.29h0Z"/>
          <path class="cls-1" d="M179.05,156.99c2.42-1.37,3.84-3.49,4.79-6.08.08-.22-.28-.37-.39-.16-.54,1.05-.96,2.16-1.62,3.15-.78,1.16-1.81,2.02-2.98,2.75-.21.13-.02.47.2.34h0Z"/>
          <path class="cls-1" d="M180.45,158.12c1.44-1.66,2.75-3.78,3.05-6,.02-.13-.17-.13-.21-.03-.86,2.11-1.63,3.96-3.15,5.71-.19.22.13.54.32.32h0Z"/>
          <path class="cls-1" d="M228.93,177.66c1.02,1.94,1.63,4.04,2.59,5.99.11.23.43.06.39-.16-.39-2.11-1.6-4.18-2.68-6-.11-.19-.39-.02-.29.17h0Z"/>
          <path class="cls-1" d="M229.02,177.74c.8.38,1.6.83,2.3,1.38s1.3,1.24,2,1.79c.08.06.26,0,.2-.12-.69-1.72-2.65-2.9-4.33-3.46-.24-.08-.41.3-.17.41h0Z"/>
          <path class="cls-1" d="M221.87,129.99c.46.89.71,1.81.97,2.76.03.11.2.09.2-.03.05-1.04-.31-2.05-.81-2.94-.13-.23-.48-.03-.36.21h0Z"/>
          <path class="cls-1" d="M206.38,246.48c2.93,13.75,5.36,27.74,9.48,41.2.06.19.34.11.3-.08-2.65-13.78-6.18-27.54-9.39-41.22-.06-.25-.44-.15-.39.11h0Z"/>
          <path class="cls-1" d="M182.41,154.35c-1.29,6.22-2.55,12.66-6.29,17.95s-9.44,8.8-15.05,12.02c-9.42,5.41-20.03,9.51-28.66,16.18-7.45,5.76-13.02,12.01-15.22,21.35s-2.26,19.45-1.17,28.94c.03.23.39.24.38,0-.7-9.97-.98-20.38,1.63-30.11,3.1-11.56,12.67-19.14,22.73-24.75,9.62-5.36,20.15-9.68,29.02-16.29s11.4-15.08,13.13-25.15c.05-.32-.42-.46-.49-.13h0Z"/>
          <path class="cls-1" d="M229.06,178.11c2.05,14.57.15,26.93-6.88,40.05-.06.11.1.2.17.1,7.9-11.92,9.94-26.39,6.93-40.21-.03-.14-.24-.08-.22.06h0Z"/>
          <path class="cls-1" d="M262.42,129.31c-8.91,17.63-20.95,33.02-32.91,48.63-.12.16.14.36.27.21,12.78-14.67,24.29-31.21,33.05-48.6.14-.28-.28-.53-.42-.25h0Z"/>
          <path class="cls-1" d="M267.09,88.32c4.67,2.68,4.87,8.23,4.49,12.91-.78,9.85-4.86,19.33-9.17,28.08-.14.29.29.54.43.25,4.54-9.24,8.95-19.41,9.35-29.87.17-4.49-.5-9.34-4.85-11.81-.28-.16-.54.28-.26.44h0Z"/>
          <path class="cls-1" d="M263.28,92.18c.46-.85.96-1.67,1.5-2.48.57-.84,1.24-1.68,2.37-1.36.32.09.46-.41.14-.5-2.33-.65-3.5,2.57-4.29,4.17-.09.18.18.34.28.16h0Z"/>
          <path class="cls-1" d="M180.67,128.93c-1.89,7.58-1.84,17.04,1.84,24.13.09.18.35.02.27-.16-3.24-7.16-3.48-16.36-1.88-23.91.03-.15-.19-.21-.23-.06h0Z"/>
          <path class="cls-1" d="M177.51,101.22c3.75-1.65,9.44,4.37,11.92,6.61,3.41,3.07,6.53,6.36,9.33,9.99.15.2.49.02.35-.2-3.22-5.06-8.11-9.39-12.74-13.14-2.3-1.87-5.94-5.16-9.14-3.74-.33.15-.04.63.28.49h0Z"/>
          <path class="cls-1" d="M180.89,129.1c-1.86-5.44-9.59-23.66-3.38-27.88.3-.21.02-.7-.29-.49-4.25,2.91-1.91,10.69-1.03,14.71,1.03,4.71,2.7,9.24,4.36,13.76.08.21.42.12.34-.09h0Z"/>
          <path class="cls-1" d="M197.7,118.52c4.37-1.63,8.66-2.37,13.31-2.64.19-.01.19-.29,0-.3-4.58-.17-9.22.89-13.39,2.74-.12.05-.03.25.09.21h0Z"/>
          <path class="cls-1" d="M220.41,104.01c.85,1.33.79,3.13.75,4.65-.07,3.08-.52,6.14-.68,9.22-.01.2.32.25.35.05.46-3.22.79-6.54.83-9.8.02-1.49,0-3.1-.84-4.37-.17-.26-.59-.02-.42.25h0Z"/>
          <path class="cls-1" d="M210.58,115.84c.95-2.19,2.17-4.18,3.57-6.11,1.19-1.64,3.96-6.72,6.34-5.64.28.13.53-.29.25-.42-2.22-.98-3.55,1.27-4.74,2.85-2.17,2.91-4.44,5.76-5.77,9.17-.08.2.26.34.34.14h0Z"/>
          <path class="cls-1" d="M219.85,117.86c3.24,2.19,6.36,4.08,8.89,7.13.15.18.47-.06.33-.26-2.19-3.12-5.68-5.5-9.08-7.11-.16-.07-.28.14-.14.23h0Z"/>
          <path class="cls-1" d="M228.95,125.14c2.57,5.88,1.28,14.09-1.86,19.41-.05.08.07.14.12.07,3.79-5.03,4.69-13.91,2.04-19.66-.09-.2-.39-.03-.3.18h0Z"/>
          <path class="cls-1" d="M269.21,92.49c2.46,4.99,1.43,9.48.79,14.72-.02.13.18.14.22.03,1.55-4.69,1.81-10.51-.82-14.86-.07-.12-.25-.01-.19.11h0Z"/>
          <path class="cls-1" d="M165.19,184.59c-8.39,5.46-17.4,9.77-26,14.87-6.53,3.87-13.05,8.39-15.99,15.66-.06.14.18.24.25.1,7.93-15.69,28.24-20.89,41.85-30.45.11-.08,0-.26-.11-.19h0Z"/>
          <path class="cls-1" d="M173.45,226.07c8.8-2.54,16.83-.47,24.32,4.51.2.13.36-.17.18-.31-6.71-5.13-16.52-7.84-24.57-4.46-.15.06-.1.3.07.25h0Z"/>
          <path class="cls-1" d="M226.02,282.75c1.98-2.78,5.29-5.98,9.1-5.41.41.06.59-.57.17-.63-4.12-.62-7.51,2.77-9.47,5.92-.08.13.11.23.19.11h0Z"/>
          <path class="cls-1" d="M222.76,217.83c2.79-5.78,3.96-12.17,3.01-18.55,0-.05-.09-.04-.09.01.34,6.44-.57,12.47-3.16,18.4-.07.16.16.31.24.14h0Z"/>
          <path class="cls-1" d="M222.72,153.2c9.94-9.02,19.27-18.4,25.84-30.23.13-.23-.22-.44-.36-.21-7.03,11.63-16.18,20.7-25.53,30.39-.03.03.02.07.05.05h0Z"/>
          <path class="cls-1" d="M178.17,102.39c-3.49,2.34-1.88,9.15-.9,12.44.04.13.26.11.25-.03-.3-3.3-2.45-9.62.82-12.11.17-.13.01-.43-.18-.3h0Z"/>
          <path class="cls-1" d="M177.83,116.14c.73,3.15,1.67,6.79,3.13,9.68.06.11.21.03.19-.08-.5-3.16-1.86-6.71-3.08-9.67-.06-.14-.27-.09-.24.06h0Z"/>
          <path class="cls-1" d="M121.46,216.86c-2.13,3.65-2.59,7.68-2.93,11.83-.47,5.75-.71,11.71-.58,17.47,0,.23.37.24.37,0-.03-9.24-.72-20.64,3.39-29.17.08-.16-.15-.3-.24-.14h0Z"/>
          <path class="cls-1" d="M200.01,234.64c6.72,9.84,5.76,20.09,1.3,30.63-.11.27.23.48.4.23,2.89-4.23,4.08-11.15,3.91-16.22-.18-5.41-2.08-10.55-5.48-14.74-.06-.07-.19.02-.13.1h0Z"/>
          <path class="cls-1" d="M220.7,220.19c.46,4.04.32,8.21.59,12.27,1,15.15,1.98,30.5,4.14,45.53.03.19.34.14.33-.04-.82-15.42-2.77-30.83-4.05-46.22-.32-3.81-.39-7.75-.93-11.54,0-.05-.09-.04-.08.01h0Z"/>
        </g>
      </g>
    </g>
    <g>
      <path class="cls-2" d="M352.87,158.46c.04-.5.23-.03-.16,0-.38-.03-.11.33-.07.82-2.91,34.74-17.91,64.16-42.06,88.11-23.18,22.58-52.04,37.12-85.2,39.97-42.44,3.66-82.71-11.43-113.7-40.35-29.07-31.15-44.85-67.05-41.1-114.3,2.63-33.17,17.4-61.96,39.59-85.51,27.79-29.49,53.85-39.14,88.59-42.06.49.05.48.2.45-.19.03-.39.27-.18-.22-.14-28.89-2.8-56.84-.67-84.25,9.45-23.82,8.79-45.09,23.14-62.67,41.26C29.12,77.94,12.15,105.32,4.78,136.83c-8.83,37.73-5.3,77.81,10.2,113.4,8.93,20.52,21.49,39.94,37.53,55.56,53.44,54.86,142.61,67.19,209.9,30.43,15.43-8.43,28.97-19.33,41.14-32,17.78-17.44,32.03-37.39,40.71-60.9,10.12-27.41,11.43-55.97,8.62-84.86Z"/>
      <g>
        <g>
          <path class="cls-3" d="M199.22,4.44c-28.74-2.81-57.2-.94-84.48,9.07-28.94,10.61-53.9,29.57-73.4,53.29-.39.47.28,1.16.68.68,20.14-23.72,44.84-42.89,74.33-53.42,26.83-9.58,54.7-11.31,82.87-8.55.68.07.68-1,0-1.07h0Z"/>
          <path class="cls-3" d="M352.18,158.46c2.75,28.17,1.02,56.04-8.55,82.87-10.53,29.49-29.7,54.19-53.42,74.33-.48.4.21,1.07.68.68,23.72-19.5,42.68-44.46,53.29-73.4,10.01-27.29,11.88-55.74,9.07-84.49-.07-.68-1.14-.69-1.07,0h0Z"/>
          <path class="cls-3" d="M52.56,305.74c53.6,54.64,142.24,68.1,209.54,31.27,19.84-10.86,37.19-25.9,51.5-43.35.39-.47-.28-1.16-.68-.68-24.28,28.49-54.93,49.77-91.62,58.54-38.29,9.15-79.22,6.12-115.24-9.97-19.71-8.8-37.67-21.13-53.21-36.09-.19-.18-.47.1-.29.29h0Z"/>
          <path class="cls-3" d="M52.24,304.85C24.51,276.04,5.54,238.18,1.86,198.13c-3.25-35.34,3.07-72.19,20.48-103.3,10.82-19.33,25.59-35.74,42.38-50.05.48-.41-.21-1.07-.68-.68-29.1,23.85-50.42,55.92-59.05,92.68-8.89,37.85-6.03,78.19,9.62,113.87,8.91,20.32,21.5,38.94,37.35,54.49.19.18.47-.1.29-.29h0Z"/>
        </g>
        <g>
          <path class="cls-3" d="M199.22,4.44c-38.22,3.14-72.38,20.98-96.69,50.76-.39.47.27,1.16.68.68,13.07-15.21,28.18-28.31,46.29-37.18,15.57-7.62,32.49-11.78,49.72-13.2.68-.06.69-1.13,0-1.07h0Z"/>
          <path class="cls-3" d="M352.18,158.46c-1.42,17.23-5.57,34.16-13.2,49.73-8.87,18.11-21.96,33.22-37.18,46.29-.48.41.21,1.07.68.68,29.78-24.31,47.62-58.47,50.76-96.7.06-.69-1.01-.68-1.07,0h0Z"/>
          <path class="cls-3" d="M111.55,246.62c42.84,43.88,113.94,54.59,167.83,25.12,15.9-8.7,29.84-20.75,41.29-34.76.39-.47-.27-1.16-.68-.68-19.53,22.76-43.91,39.81-73.33,46.84-30.39,7.26-62.77,4.9-91.43-7.63-16.08-7.04-30.7-17.07-43.39-29.17-.19-.18-.47.1-.29.29h0Z"/>
          <path class="cls-3" d="M111.84,246.34c-22.37-23.47-37.98-54.05-40.8-86.6-2.42-27.91,2.56-56.92,16.2-81.54,8.69-15.67,20.61-28.88,34.15-40.5.48-.41-.21-1.07-.68-.68-23.37,19.1-40.46,44.89-47.35,74.39-7.08,30.28-4.78,62.44,7.76,90.96,7.26,16.5,17.53,31.65,30.43,44.25.19.18.46-.1.29-.29h0Z"/>
        </g>
      </g>
      <g>
        <path class="cls-3" d="M172.92,318.46c-13.09-2.09-10.19,65.31-30.65,64.24-17.32-.91-16.99-32.94-16.99-32.94-9.25-2.83-20.83-7.82-20.83-7.82,0,0,.52,62.98,40.45,64.3,39.92,1.32,43.92-85.25,28.03-87.78Z"/>
        <g>
          <path class="cls-1" d="M165.6,327.62c4.11,3.09,9.59,3.5,14.56,3.12.17-.01.18-.26,0-.27-5.13-.2-9.8-.58-14.38-3.15-.21-.12-.36.17-.18.31h0Z"/>
          <path class="cls-1" d="M164.28,332.06c3.71,4.05,11.51,3.93,16.45,3.12.37-.06.21-.62-.15-.56-4.98.8-11.97.68-15.98-2.88-.22-.19-.51.1-.32.32h0Z"/>
          <path class="cls-1" d="M124.7,349.73c-.06,5.85,1.25,11.48,2.79,17.09,1.28,4.67,2.39,8.72,6.07,12.04,4.8,4.34,13.24,6.37,17.14-.35.04-.08-.07-.17-.13-.1-7.08,8.37-18.08,1.7-21.07-6.8-2.45-6.97-4.02-14.52-4.34-21.88-.01-.29-.46-.3-.46,0h0Z"/>
          <path class="cls-1" d="M174.56,382.35c-3.18,7.05-8.27,14.77-14.83,19.18-10.32,6.93-23.47,4.85-32.99-2.45-16.55-12.7-21.7-37.23-22.07-57.14,0-.3-.46-.3-.46,0-.12,9.77,1.68,20.84,4.53,30.17,3.48,11.39,9.72,22.72,19.95,29.34,9.19,5.95,21.07,7.28,30.6,1.39,7.18-4.44,12.6-12.55,15.99-20.06.22-.49-.5-.91-.72-.42h0Z"/>
          <path class="cls-1" d="M168.38,321.53c9-11.03,12.44,13.27,12.63,17.63.65,14.5-.9,29.83-6.5,43.3-.21.5.61.72.81.22,6.1-14.73,8.04-32.69,6.03-48.55-.69-5.44-5.33-23.17-13.49-13.11-.29.36.22.87.51.51h0Z"/>
          <path class="cls-1" d="M156.81,365.1c2.4-7.78,4.3-15.7,6.12-23.63,1.47-6.39,2.19-14.27,5.51-20,.23-.4-.39-.77-.62-.36-3.13,5.46-3.81,12.67-5.17,18.73-1.89,8.43-3.83,16.86-6.31,25.14-.09.3.38.43.47.13h0Z"/>
          <path class="cls-1" d="M149.89,379.54c3.65-3.73,5.37-9.61,6.93-14.44.1-.3-.38-.44-.48-.13-1.49,4.81-3.07,10.63-6.63,14.39-.11.12.06.3.18.18h0Z"/>
        </g>
      </g>
      <g>
        <g>
          <path class="cls-3" d="M82.53,29.75c-3.12,2.02-4.13,6.69-1.2,9.43,4.37,4.09,14.05,1.84,19.01.19,6.4-2.14,12.08-6.44,14.82-12.75,1.52-3.51,3.34-11.24-2.21-12.01-.44-.06-.63.62-.19.68,6.53.91,1.79,11.6.05,14.25-2.21,3.37-5.4,5.99-8.99,7.76-3.8,1.88-8.07,2.77-12.27,3.07-1.31.09-2.64.15-3.96.08-5.12-.28-10.8-5.73-4.82-10.27.25-.19.02-.61-.25-.43h0Z"/>
          <path class="cls-3" d="M117.41,15.18c1.65,5.81.43,10.91-2.45,16.06-.08.14.12.31.23.18,3.61-4.55,4.17-10.9,2.51-16.31-.06-.18-.34-.11-.29.08h0Z"/>
          <path class="cls-3" d="M77.52,37.48c1.77,10.02,15.77,7.78,22.51,5.37.24-.08.14-.45-.1-.38-6.91,2.01-19.69,4.59-22.06-5.08-.06-.23-.38-.13-.34.09h0Z"/>
          <path class="cls-3" d="M82.15,30.15c-.59,2.11-.48,4.51.99,6.25,1.62,1.91,4.51,2.51,6.9,2.28.13-.01.13-.19,0-.21-2.39-.29-4.9-.27-6.57-2.3-1.37-1.66-1.31-3.9-.88-5.9.06-.29-.36-.41-.44-.12h0Z"/>
          <path class="cls-3" d="M112.63,18.59c-.22,8.39-4.51,14.89-13.07,16.49-.25.05-.14.4.1.37,7.96-1.14,14.61-8.65,13.29-16.9-.03-.19-.32-.13-.32.04h0Z"/>
        </g>
        <path class="cls-3" d="M86,52.35c-3.9,2.09-7.03,6.06-7.24,10.61-.18,3.97,2.84,5.98,6.54,4.69,4.12-1.43,7.44-5.42,8.99-9.37s.67-7.16-4.01-6.97c-.07,0-.08.1-.02.12,2.63.7,4.51.59,4.17,4.94-.11,1.45-1.05,3.03-1.8,4.27-1.58,2.6-3.9,4.88-6.7,6.12-2.35,1.03-5.41,1.43-6.54-1.88-.52-1.52-.12-3.37.37-4.83,1.09-3.26,3.45-5.74,6.43-7.36.22-.12.02-.45-.19-.33h0Z"/>
        <path class="cls-3" d="M82.97,57.71c2.39-2.92,9.12-7.12,10.61-1.22.02.07.1.04.11-.01.31-2.34-1.59-3.38-3.66-3.32-3.14.09-5.39,2.1-7.18,4.47-.05.06.06.15.11.09h0Z"/>
        <path class="cls-3" d="M80.47,62.89c-.6,1.58.64,2.88,2.15,3.21,1.94.42,4.22-.36,5.65-1.68.15-.14-.04-.39-.22-.29-1.13.68-2.22,1.26-3.54,1.45-1.66.25-4.25-.28-3.67-2.6.06-.24-.28-.33-.37-.1h0Z"/>
        <path class="cls-3" d="M78.58,57.26c-2.5,3.44-2.59,10.86,2.28,12.22.18.05.29-.21.13-.3-2.47-1.29-3.52-3.19-3.49-6,.01-1.93.21-4.16,1.26-5.82.07-.11-.1-.2-.17-.1h0Z"/>
        <path class="cls-3" d="M94.71,51.6c3.9,3.33.34,8.17-1.58,11.41-.1.17.13.33.27.2,2.92-2.61,5.03-8.9,1.49-11.79-.12-.1-.29.07-.17.17h0Z"/>
        <path class="cls-3" d="M78.69,95.9c-6.79-10.23-20.32-7.81-28.82-1.28-10.83,8.32-18.14,21.32-20.93,34.56s-3.65,29.3,3.92,41.44c5.74,9.22,17.9,16.17,28.65,11.28.38-.17.11-.76-.28-.66-12.28,3.07-23.26-2.48-28.98-13.72s-5-25.15-2.62-37.24c2.22-11.23,7.51-21.73,15.39-30.06,8.27-8.74,24.14-16.5,33.04-3.96.26.37.87.03.62-.36h0Z"/>
        <path class="cls-3" d="M33.46,147.49c-1.08,10.9,1.87,23.39,12.56,28.6,8.09,3.94,20.63,3.75,26.62-3.71.22-.27-.15-.66-.39-.39-6.31,7.1-19.16,7.2-27.04,2.67-9.55-5.48-12.02-16.99-11.45-27.17.01-.2-.28-.19-.3,0h0Z"/>
        <path class="cls-3" d="M37.24,118.44c3-6.27,7.04-12.06,12.39-16.56,3.04-2.55,6.58-4.86,10.35-6.14,5.99-2.05,10.04-.24,15.27,2.78.23.13.48-.18.28-.37-14.35-13.65-33.18,7.47-38.68,20.06-.12.27.27.5.4.23h0Z"/>
        <path class="cls-3" d="M73.31,86.4c-17.99-4.97-34.42,9.09-42.58,23.93-.13.24.21.43.36.21,10.19-13.82,22.92-28.26,42.12-23.78.23.05.33-.3.1-.36h0Z"/>
        <path class="cls-3" d="M30.51,117.19c-4.3,10.83-6.27,22.71-5.16,34.34.02.21.34.22.34,0-.4-11.85,1.1-23.08,5.15-34.25.07-.21-.25-.29-.33-.09h0Z"/>
        <path class="cls-3" d="M25.38,159.85c.79,5.85,1.97,12.22,6.18,16.65.08.08.23-.03.16-.12-3.77-4.97-5.19-10.52-6.14-16.58-.02-.14-.23-.08-.21.06h0Z"/>
        <path class="cls-3" d="M98.58,230.95c-11.69.13-16.59,12.88-15.96,22.91.87,13.8,7.99,27.3,17.68,36.94,9.61,9.56,22.15,18.62,36.16,19.2,10.96.45,24.02-5.85,25.75-17.8.07-.45-.54-.64-.7-.19-4.13,12.12-14.88,18.21-27.57,16.77s-23.02-9.14-31.76-17.4-14.43-17.93-17.28-29.06-1.64-30.01,13.66-30.66c.46-.02.46-.72,0-.71h0Z"/>
        <path class="cls-3" d="M118.09,296.94c8.01,6.41,18.71,10.56,28.69,6.14,8.93-3.95,16.66-15.67,13.52-25.48-.11-.34-.63-.2-.53.15,2.72,10.13-5.83,22.31-15.5,25.36-9.25,2.91-18.57-.95-26-6.4-.14-.1-.31.13-.18.24h0Z"/>
        <path class="cls-3" d="M95.79,277.97c-4.15-6.81-7.04-14.4-7.4-22.43-.17-3.85.13-7.81,1.52-11.43,1.91-4.97,5.38-6.58,9.85-8.86.24-.12.07-.49-.18-.43-19.25,4.62-11.72,31.93-4.18,43.38.16.25.55.02.4-.23h0Z"/>
        <path class="cls-3" d="M88.51,230.3c-14.02,12.38-11,33.84-3.07,48.75.11.21.47.06.39-.16-6.09-16.05-11.23-34.72,2.95-48.32.18-.17-.09-.42-.27-.27h0Z"/>
        <path class="cls-3" d="M91.06,282.93c6.74,9.51,15.67,17.65,26.04,23.04.19.1.36-.18.17-.29-10.17-6.1-18.75-13.44-25.92-22.92-.13-.17-.42,0-.29.17h0Z"/>
        <path class="cls-3" d="M124.06,310.45c5.4,2.54,11.29,4.94,17.36,3.88.11-.02.09-.21-.03-.2-6.22.45-11.6-1.35-17.22-3.86-.12-.06-.24.13-.11.19h0Z"/>
        <path class="cls-3" d="M132.13,13.12c21.25-5.95,42.57-6.12,64.36-7.79.42-.03.43-.66,0-.67-21.39-.08-43.97,1.68-64.47,8.05-.25.08-.15.47.11.4h0Z"/>
        <path class="cls-3" d="M129.11,23.32c19.55-10.41,40.28-16.04,62.31-17.64.42-.03.43-.67,0-.66-21.83.65-43.56,7.21-62.4,18.15-.09.05-.01.2.09.15h0Z"/>
        <path class="cls-3" d="M131.84,17.25c5.97-1.98,12.09-3.54,18.03-5.57.23-.08.14-.4-.1-.36-6.11,1.03-12.29,3.26-18.03,5.57-.22.09-.13.44.1.36h0Z"/>
        <path class="cls-3" d="M112.26,40.05c9.86-8.56,20.47-14.53,31.75-20.87.18-.1.06-.41-.14-.33-11.76,4.29-22.77,12.48-31.85,20.96-.16.15.08.39.25.25h0Z"/>
        <path class="cls-3" d="M351.95,160.98c-1.42,30.75-8.3,60.24-19.93,88.7-.15.37.48.63.64.27,12.83-27.7,19.45-58.48,19.86-88.97,0-.38-.56-.37-.58,0h0Z"/>
        <path class="cls-3" d="M352.86,167.38c-.52,22.2-4.25,43.58-9,65.19-.06.28.35.4.43.12,6.34-20.97,8.62-43.49,8.86-65.31,0-.19-.29-.19-.29,0h0Z"/>
        <path class="cls-3" d="M344.75,201.52c-5.71,20.57-16.7,37.6-31.08,53.15-.3.32.16.77.48.48,15.32-14.02,25.68-33.63,31.01-53.51.07-.26-.33-.37-.41-.11h0Z"/>
        <path class="cls-3" d="M185.75,356.9c3.66-6.85,7.35-13.9,12.99-19.35s12.99-8.9,20.57-10.64c14.9-3.42,30.68-.23,42.82,9.12.47.36,1.12-.46.64-.83-12.1-9.38-28.02-12.56-42.94-9.35-7.27,1.56-14.29,4.64-20,9.47-6.69,5.67-10.83,13.52-14.74,21.21-.22.43.42.81.65.38h0Z"/>
        <path class="cls-3" d="M196.58,347.38c6.7-11.68,18.62-16.56,31.58-17.61.21-.02.22-.35,0-.34-12.78.5-26.22,5.46-32.03,17.68-.14.3.28.56.45.26h0Z"/>
        <path class="cls-3" d="M234.7,329.49c2.69.6,5.39.89,8.03,1.76s4.94,2.33,7.5,3.31c.19.07.34-.21.2-.34-3.74-3.4-10.69-5.43-15.67-5.17-.24.01-.31.38-.06.43h0Z"/>
        <path class="cls-3" d="M62.29,190.66c-4.61,0-8.97,3.11-9.46,7.95-.55,5.43,3.94,7.74,8.75,7.57s10.08-2.68,11.29-7.8c.94-3.99-1.58-7.95-5.7-8.39-.16-.02-.2.25-.04.29,4.37,1.09,6.33,5.87,4.19,9.83-1.71,3.17-5.12,4.67-8.54,5.07-4.72.55-10.39-1.63-8.96-7.48.94-3.84,4.67-6.42,8.47-6.62.27-.01.27-.42,0-.42h0Z"/>
        <path class="cls-3" d="M59.74,193.99c4.23-2.64,11.73-1.18,10.29,4.98-.04.19.22.31.32.13,1.23-2.24.09-5.01-2.13-6.12-2.42-1.21-6.45-.79-8.65.72-.18.12-.02.41.17.29h0Z"/>
        <path class="cls-3" d="M56.26,195.75c-2.03,1.85-1.66,5.7.99,6.86.14.06.26-.09.16-.21-.72-.88-1.56-1.58-1.87-2.72-.36-1.34,0-2.7.98-3.68.16-.16-.08-.41-.25-.25h0Z"/>
        <path class="cls-3" d="M52.61,193.97c-5.64,5.65-2.09,15.9,6.32,15.55.14,0,.13-.2,0-.22-7.54-.93-11.83-9.14-6.06-15.07.17-.17-.09-.44-.27-.27h0Z"/>
        <path class="cls-3" d="M74.29,196.18c-.11,2.23-.64,4.34-1.84,6.23s-2.94,3.06-4.77,4.4c-.15.11-.07.37.13.32,4.38-1.22,7.09-6.7,6.8-10.95-.01-.2-.31-.21-.32,0h0Z"/>
        <path class="cls-3" d="M261.96,303.08c-4.61,0-8.97,3.11-9.46,7.95-.55,5.43,3.94,7.74,8.75,7.57,4.87-.17,10.08-2.68,11.29-7.8.94-3.99-1.58-7.95-5.7-8.39-.16-.02-.2.25-.04.29,4.37,1.09,6.33,5.87,4.19,9.83-1.71,3.17-5.12,4.67-8.54,5.07-4.72.55-10.39-1.63-8.96-7.48.94-3.84,4.67-6.42,8.47-6.62.27-.01.27-.42,0-.42h0Z"/>
        <path class="cls-3" d="M259.41,306.41c4.23-2.64,11.73-1.18,10.29,4.98-.04.19.22.31.32.13,1.23-2.24.09-5.01-2.13-6.12-2.42-1.21-6.45-.79-8.65.72-.18.12-.02.41.17.29h0Z"/>
        <path class="cls-3" d="M255.93,308.17c-2.03,1.85-1.66,5.7.99,6.86.14.06.26-.09.16-.21-.72-.88-1.56-1.58-1.87-2.72-.36-1.34,0-2.7.98-3.68.16-.16-.08-.41-.25-.25h0Z"/>
        <path class="cls-3" d="M252.28,306.39c-5.64,5.65-2.09,15.9,6.32,15.55.14,0,.13-.2,0-.22-7.54-.93-11.83-9.14-6.06-15.07.17-.17-.09-.44-.27-.27h0Z"/>
        <path class="cls-3" d="M273.96,308.61c-.11,2.23-.64,4.34-1.84,6.23s-2.94,3.06-4.77,4.4c-.15.11-.07.37.13.32,4.38-1.22,7.09-6.7,6.8-10.95-.01-.2-.31-.21-.32,0h0Z"/>
        <path class="cls-3" d="M228.8,294.04c-13.38.03-17.17,19.86-1.74,19.89,6.48.01,13.68-3.11,15.3-9.99,1.21-5.11-2.01-10.14-7.26-10.78-.16-.02-.2.25-.04.29,5.81,1.35,8.31,7.63,5.52,12.81-2.46,4.56-7.75,6.63-12.7,6.8-2.63.09-6.66,0-8.42-2.31-2.17-2.83-2.47-6.81-.88-9.92,1.95-3.84,6-6.2,10.23-6.37.27-.01.27-.42,0-.42h0Z"/>
        <path class="cls-3" d="M225.47,298.24c5.38-3.39,15.53-1.57,13.38,6.5-.05.18.23.31.32.13,1.47-2.91.13-6.39-2.75-7.83-3.11-1.56-8.29-1.01-11.12.91-.18.12-.02.41.17.29h0Z"/>
        <path class="cls-3" d="M221.04,300.6c-2.66,2.45-2.01,7.16,1.26,8.81.13.07.26-.09.16-.21-1-1.09-2.06-2.05-2.46-3.53-.47-1.75,0-3.54,1.3-4.82.16-.16-.08-.41-.25-.25h0Z"/>
        <path class="cls-3" d="M216.32,298.3c-7.31,7.35-2.62,20.29,8.14,20.04.14,0,.14-.2,0-.22-9.88-1.03-15.33-11.93-7.87-19.56.17-.17-.09-.44-.27-.27h0Z"/>
        <path class="cls-3" d="M244.36,301.12c-.24,6.36-3.5,10.39-8.57,13.79-.16.1-.06.38.13.32,5.61-1.81,9.06-8.51,8.76-14.11-.01-.2-.31-.21-.32,0h0Z"/>
        <path class="cls-3" d="M31.19,185.22c-4.61,0-8.97,3.11-9.46,7.95-.55,5.43,3.94,7.74,8.75,7.57s10.08-2.68,11.29-7.8c.94-3.99-1.58-7.95-5.7-8.39-.16-.02-.2.25-.04.29,4.37,1.09,6.33,5.87,4.19,9.83-1.71,3.17-5.12,4.67-8.54,5.07-4.72.55-10.39-1.63-8.96-7.48.94-3.84,4.67-6.42,8.47-6.62.27-.01.27-.42,0-.42h0Z"/>
        <path class="cls-3" d="M28.64,188.55c4.23-2.64,11.73-1.18,10.29,4.98-.04.19.22.31.32.13,1.23-2.24.09-5.01-2.13-6.12-2.42-1.21-6.45-.79-8.65.72-.18.12-.02.41.17.29h0Z"/>
        <path class="cls-3" d="M25.17,190.31c-2.03,1.85-1.66,5.7.99,6.86.14.06.26-.09.16-.21-.72-.88-1.56-1.58-1.87-2.72-.36-1.34,0-2.7.98-3.68.16-.16-.08-.41-.25-.25h0Z"/>
        <path class="cls-3" d="M21.51,188.53c-5.64,5.65-2.09,15.9,6.32,15.55.14,0,.13-.2,0-.22-7.54-.93-11.83-9.14-6.06-15.07.17-.17-.09-.44-.27-.27h0Z"/>
        <path class="cls-3" d="M43.19,190.75c-.11,2.23-.64,4.34-1.84,6.23s-2.94,3.06-4.77,4.4c-.15.11-.07.37.13.32,4.38-1.22,7.09-6.7,6.8-10.95-.01-.2-.31-.21-.32,0h0Z"/>
        <path class="cls-3" d="M11.07,126.46c-3.44,13.97-6.58,28.92-6.76,43.36,0,.2.34.26.37.05,2.19-14.5,3.62-28.94,6.71-43.32.05-.21-.27-.3-.33-.09h0Z"/>
        <path class="cls-3" d="M4.1,175.78c-1.33,19.93,2.36,41.82,8.91,60.62.12.33.63.2.53-.15-2.66-9.6-5.16-19.17-6.67-29.03-1.6-10.47-1.89-20.9-2.44-31.45-.01-.22-.32-.22-.34,0h0Z"/>
        <path class="cls-3" d="M17.84,247.06c3.76,9.73,9.34,18.44,14.91,27.21,5.51,8.67,11.27,17.38,18.74,24.5.33.32.82-.17.5-.5-7.21-7.77-13.23-16.28-18.92-25.2-5.39-8.45-10.9-16.93-14.94-26.13-.07-.16-.36-.05-.29.12h0Z"/>
        <path class="cls-3" d="M54.81,303.19c7.37,7.46,15.57,14.01,24.72,19.15.23.13.43-.21.21-.36-8.84-5.59-17.11-11.82-24.61-19.11-.21-.2-.52.11-.32.32h0Z"/>
        <path class="cls-3" d="M10.24,202.2c1.36,17.48,6.32,35.1,15.11,50.34.02.04.07,0,.06-.03-7.59-16.14-12.7-32.54-14.66-50.31-.03-.32-.53-.33-.51,0h0Z"/>
        <path class="cls-3" d="M259.44,283.96c16.99-5.06,33.57-14.37,45.76-27.4.21-.22-.11-.54-.33-.33-13.45,12.43-27.97,21.79-45.54,27.36-.23.07-.14.44.1.37h0Z"/>
        <path class="cls-3" d="M334.41,233.36c-6.59,15.22-16.02,27.8-27.79,39.38-.25.25.12.6.38.38,12.52-10.25,22.04-24.57,27.82-39.59.09-.24-.31-.41-.41-.17h0Z"/>
        <path class="cls-3" d="M330.12,256.68c-7.51,11.88-15.18,23.18-27.25,30.81-.25.16-.03.53.23.4,12.71-6.29,20.51-19.18,27.51-30.92.19-.31-.29-.59-.49-.28h0Z"/>
      </g>
    </g>
  </g>
</svg>